<svg version="1.1" id="Layer_1" xmlns="http://www.w3.org/2000/svg" xmlns:xlink="http://www.w3.org/1999/xlink" x="0px" y="0px"
	 width="100%" viewBox="0 0 179 190" enable-background="new 0 0 179 190" xml:space="preserve">
<path fill="#FEFEFE" opacity="1.000000" stroke="none" 
	d="
M1.000000,62.000000 
	C1.000000,41.333340 1.000000,21.166676 1.000000,1.000011 
	C60.666645,1.000007 120.333290,1.000007 179.999954,1.000004 
	C179.999969,64.333298 179.999969,127.666595 179.999985,190.999908 
	C120.333382,190.999939 60.666763,190.999939 1.000073,190.999969 
	C1.000000,148.166672 1.000000,105.333336 1.000000,62.000000 
M88.994659,164.002197 
	C88.994659,164.002197 88.977394,163.946243 88.440636,164.082382 
	C88.210365,164.363068 87.980095,164.643753 87.224548,165.035492 
	C86.827827,165.381943 86.431107,165.728378 85.401421,166.264023 
	C83.605049,167.534424 81.808670,168.804825 79.300827,170.189224 
	C76.640213,171.485229 73.979599,172.781235 71.318985,174.077240 
	C71.316032,174.551163 71.313080,175.025085 71.310127,175.499008 
	C74.185165,176.084808 77.060204,176.670609 80.581093,177.598206 
	C82.062004,177.658920 83.542915,177.719650 85.926430,177.982452 
	C89.953110,177.943604 93.979782,177.904739 98.786118,177.991516 
	C101.240799,177.430084 103.695488,176.868652 106.776352,176.228622 
	C107.184044,176.136871 107.591728,176.045135 108.793060,176.036514 
	C117.212166,172.413559 125.631271,168.790588 134.604584,165.038330 
	C134.821960,164.744400 135.039337,164.450470 135.153198,164.213928 
	C135.153198,164.213928 135.248993,164.283463 135.880478,164.120407 
	C137.262543,163.091019 138.644608,162.061646 140.661758,160.807098 
	C145.171829,156.263840 149.681885,151.720581 154.738068,146.801819 
	C155.893051,144.902908 157.048050,143.004013 158.096329,141.073853 
	C158.096329,141.073853 158.122498,141.181946 158.591766,140.974152 
	C158.673203,140.658447 158.754639,140.342743 159.034607,139.480988 
	C159.062439,139.095779 159.090256,138.710587 159.740051,138.030518 
	C160.476059,136.686951 161.212067,135.343399 162.081787,133.629318 
	C162.081787,133.629318 162.098267,133.235748 162.752914,132.915131 
	C164.014786,130.673203 165.534225,128.536453 166.499100,126.173264 
	C177.389542,99.500557 174.707687,73.783379 160.391769,49.175880 
	C157.722763,44.588139 153.552643,40.873688 150.050217,36.384270 
	C150.050217,36.384270 149.876282,36.054550 149.795898,35.422951 
	C149.215714,35.193546 148.635513,34.964146 148.042145,34.360077 
	C148.042145,34.360077 147.862198,34.031193 147.871918,33.511139 
	C147.579010,33.387428 147.286087,33.263718 146.529800,32.862007 
	C146.314209,32.577591 146.098618,32.293179 145.885269,31.473179 
	C145.577499,31.358509 145.269714,31.243839 144.612717,30.980864 
	C144.612717,30.980864 144.234772,30.947430 143.976761,30.429377 
	C143.667633,30.206724 143.358521,29.984074 142.838196,29.261972 
	C142.448883,28.884104 142.059555,28.506235 141.385452,27.542812 
	C119.391342,10.139669 94.607124,6.164191 67.981377,13.141526 
	C57.904503,15.782193 48.516216,20.536888 40.375286,28.002304 
	C40.107204,28.133814 39.948177,28.346766 39.265533,28.914421 
	C17.955183,47.782993 7.691904,71.275978 9.811627,99.837288 
	C10.188568,104.916222 11.272375,109.942688 11.990379,115.756546 
	C12.995866,118.539688 14.001352,121.322830 15.006840,124.105972 
	C15.316904,124.010796 15.626968,123.915619 15.937033,123.820442 
	C16.283905,121.209679 16.630775,118.598923 17.245274,115.319466 
	C17.848030,113.260384 18.450785,111.201294 19.499075,108.618996 
	C19.698345,107.734039 19.897614,106.849075 20.257944,105.790176 
	C20.257944,105.790176 20.159355,105.574593 20.653913,105.184647 
	C20.766964,104.787994 20.880014,104.391342 21.440741,103.453697 
	C27.222672,87.257492 37.519100,74.291756 50.951649,62.923344 
	C59.076679,56.692574 67.993279,51.836449 77.982681,49.649021 
	C96.390175,45.618252 114.284370,53.325813 120.731422,70.753784 
	C121.762733,73.541664 122.989723,76.257149 124.117226,79.506409 
	C124.182663,79.659821 124.248093,79.813240 124.233154,80.820068 
	C124.328148,87.197266 124.423134,93.574463 124.257156,100.800659 
	C123.909668,103.408592 123.760567,106.061485 123.181511,108.616951 
	C120.118645,122.133881 114.363014,134.476700 106.301353,146.150085 
	C106.128197,146.356094 106.030022,146.593140 105.407051,147.194931 
	C101.580032,151.444885 97.753021,155.694839 93.986885,159.996231 
	C93.986885,159.996231 93.963882,159.919922 93.441612,160.056854 
	C93.252373,160.349350 93.063133,160.641861 92.970596,160.941895 
	C92.970596,160.941895 92.905510,160.869980 92.319580,161.031326 
	C91.587692,161.706146 90.855804,162.380951 90.037376,163.032501 
	C90.037376,163.032501 90.030434,163.121841 89.552162,163.232590 
	C89.237106,163.386963 89.034401,163.633667 88.994659,164.002197 
M87.822197,64.279060 
	C85.897560,63.594322 83.972931,62.909588 81.377861,62.017323 
	C79.586296,62.038601 77.794731,62.059883 75.221916,62.022396 
	C72.783211,62.993176 70.344505,63.963955 67.990150,64.977623 
	C67.990150,64.977623 67.940063,64.897346 67.264389,65.031883 
	C64.731476,67.170303 61.870911,69.023094 59.717987,71.492775 
	C43.870144,89.672272 36.903473,111.027122 38.049622,134.964294 
	C38.458950,143.512985 40.632122,151.730530 47.186413,158.824570 
	C48.588360,159.945084 49.875957,161.262970 51.411625,162.152679 
	C58.919975,166.502716 68.195747,165.532349 75.770462,158.887238 
	C95.037354,141.984848 101.118622,119.449486 102.052086,94.970306 
	C102.179344,91.632996 100.852318,88.240227 100.106712,84.253250 
	C100.063553,83.837708 100.020386,83.422173 100.312302,82.558090 
	C99.852371,81.372940 99.392441,80.187798 99.072426,78.241035 
	C97.394516,72.150581 94.682686,66.908005 88.037315,64.936806 
	C88.037315,64.936806 88.135193,64.905678 87.822197,64.279060 
z"/>
<path fill="#F94E55" opacity="1.000000" stroke="none" 
	d="
M141.670242,28.128365 
	C142.059555,28.506235 142.448883,28.884104 143.047089,29.791203 
	C143.582245,30.529432 143.908508,30.738432 144.234772,30.947430 
	C144.234772,30.947430 144.612717,30.980864 144.796112,31.278000 
	C144.979492,31.575136 144.997528,32.021309 144.995392,32.393669 
	C144.997330,33.510765 145.001404,34.255508 145.003815,35.416992 
	C145.639526,38.343407 145.635834,41.304142 147.028030,43.282665 
	C152.332214,50.820770 158.067810,58.056587 163.702866,65.358559 
	C164.252167,66.070358 165.219025,66.459915 166.028107,67.344055 
	C166.378357,68.792000 166.692566,69.894951 166.617889,71.084320 
	C163.516418,76.713852 165.331238,83.847916 170.003418,86.428833 
	C170.003143,91.572357 170.000656,96.286522 169.657959,101.050598 
	C164.404587,105.043121 162.353912,110.135735 162.980759,116.406837 
	C163.496124,121.562798 161.250290,125.714996 157.939697,129.446350 
	C154.669052,133.132675 151.694763,137.115463 148.172287,140.537811 
	C141.119919,147.389725 134.153473,154.429520 126.395401,160.411011 
	C122.855286,163.140427 117.520691,163.542389 113.000000,164.666656 
	C113.000000,163.888901 113.000000,163.444443 113.161163,162.688019 
	C114.745842,161.575745 116.115593,160.653290 117.603279,159.998901 
	C121.525101,158.273819 125.843971,157.193054 129.368393,154.884323 
	C134.447250,151.557297 138.995590,147.410202 143.691055,143.517426 
	C144.542145,142.811829 145.036942,141.662582 145.654816,140.691803 
	C149.636337,134.436340 153.693390,128.226135 157.527069,121.881104 
	C158.676651,119.978424 159.922073,117.670242 159.857452,115.587128 
	C159.686218,110.068764 161.628571,105.610481 164.968079,101.436646 
	C167.969437,97.685440 168.270081,91.517021 166.342453,87.890388 
	C164.659393,84.723885 162.843719,81.442398 162.103043,77.993431 
	C159.294327,64.914963 153.326752,53.800789 143.375305,44.758347 
	C140.845810,42.459908 139.248032,39.152138 136.779068,36.766712 
	C134.106598,34.184635 131.033905,31.958328 127.912392,29.918713 
	C125.585335,28.398205 122.880707,27.465221 120.382690,26.194950 
	C111.331306,21.592218 102.791328,14.854317 91.567253,19.547478 
	C90.927277,19.815073 89.981682,19.307299 89.171883,19.220362 
	C83.471001,18.608334 78.085922,18.955994 72.816704,21.950733 
	C66.828674,25.354006 60.434940,28.062128 54.141727,30.904522 
	C47.791374,33.772720 43.410019,38.019753 43.013519,45.399288 
	C42.772430,49.886330 45.045906,51.685345 49.040348,49.948952 
	C53.761784,47.896530 58.493519,45.827469 63.044338,43.430599 
	C75.859077,36.681213 89.082893,36.713459 102.561447,40.780178 
	C106.957474,42.106537 111.415474,43.449688 115.522438,45.448273 
	C119.490753,47.379395 123.357384,49.890694 124.000153,55.249924 
	C123.999962,55.666718 123.999924,55.833435 123.652328,55.963955 
	C122.852852,55.730919 122.219154,55.662670 121.975647,55.318420 
	C115.974625,46.834465 104.779358,47.489395 97.396393,41.393852 
	C96.561562,40.704601 94.783340,40.837318 93.517097,41.044449 
	C86.430191,42.203747 79.313210,43.267345 72.313599,44.840244 
	C67.899269,45.832199 63.619743,47.520458 59.375206,49.145679 
	C54.750023,50.916653 50.387508,53.630489 45.632126,54.736938 
	C40.180412,56.005398 37.433815,59.386200 35.564972,64.011612 
	C34.520084,66.597717 33.843079,69.332458 33.000195,72.250168 
	C33.000084,72.500107 32.999847,73.000000 32.653313,73.035027 
	C29.031971,76.191437 25.757164,79.312820 22.720913,82.206833 
	C21.059008,79.880920 20.029692,78.440353 19.008516,76.596001 
	C21.355429,63.353840 26.277466,51.900459 36.329201,43.049229 
	C37.744804,41.802692 38.327816,39.654224 39.486115,38.061329 
	C41.080315,35.868980 42.434372,33.053967 44.629715,31.828323 
	C52.098335,27.658638 59.915295,24.116901 67.540695,20.220797 
	C69.154480,19.396250 70.520454,18.086699 72.413940,16.991329 
	C79.218414,15.653421 85.609558,14.324797 92.412994,13.049180 
	C94.606018,13.400720 96.376968,13.865697 98.169083,13.971239 
	C111.553459,14.759487 124.061340,17.984085 135.008469,26.235708 
	C136.727768,27.531652 139.425125,27.530022 141.670242,28.128365 
z"/>
<path fill="#F44E55" opacity="1.000000" stroke="none" 
	d="
M76.003166,62.081161 
	C77.794731,62.059883 79.586296,62.038601 81.943039,62.359993 
	C84.383881,63.437000 86.259537,64.171341 88.135193,64.905678 
	C88.135193,64.905678 88.037315,64.936806 88.067688,65.251328 
	C91.405769,70.040726 94.713470,74.515602 98.014206,79.366165 
	C98.663887,80.830116 99.320557,81.918373 99.977226,83.006630 
	C100.020386,83.422173 100.063553,83.837708 99.833389,84.833069 
	C99.419395,87.535278 99.222473,89.655724 99.148476,91.780449 
	C98.914658,98.494942 99.671326,105.406555 98.329811,111.886879 
	C95.291626,126.563164 88.947411,139.938766 79.558784,151.758362 
	C70.492943,163.171600 58.281021,164.767838 46.856873,155.668365 
	C44.808475,150.084442 41.717430,144.921402 41.274487,139.540375 
	C40.578251,131.082291 40.954926,122.376083 42.153881,113.956726 
	C44.322304,98.729485 50.585152,85.126724 60.923111,73.532814 
	C63.388931,70.767418 65.607681,67.781723 67.940063,64.897346 
	C67.940063,64.897346 67.990150,64.977623 68.344757,64.977798 
	C71.133965,64.012367 73.568565,63.046764 76.003166,62.081161 
M48.860313,147.300278 
	C49.792847,148.252792 50.711536,149.219345 51.660114,150.155609 
	C58.602879,157.008194 64.063255,157.846100 71.021080,151.077652 
	C77.820633,144.463150 83.711395,136.796249 89.255440,129.057159 
	C92.206253,124.938034 92.388123,119.416512 93.569740,114.421349 
	C95.425011,106.578384 96.631287,98.994507 96.017860,91.035309 
	C95.967278,90.379021 95.984940,89.674301 96.167778,89.049728 
	C98.594307,80.761040 92.746201,76.441933 87.592369,72.242348 
	C82.661446,68.224388 76.778931,68.294006 71.569817,72.349403 
	C62.386215,79.499023 54.660686,88.493820 51.146194,99.401222 
	C47.903271,109.465805 47.178066,120.454391 46.286613,131.114822 
	C45.860546,136.209976 47.617924,141.487732 48.860313,147.300278 
z"/>
<path fill="#F44E55" opacity="1.000000" stroke="none" 
	d="
M72.000610,17.000610 
	C70.520454,18.086699 69.154480,19.396250 67.540695,20.220797 
	C59.915295,24.116901 52.098335,27.658638 44.629715,31.828323 
	C42.434372,33.053967 41.080315,35.868980 39.486115,38.061329 
	C38.327816,39.654224 37.744804,41.802692 36.329201,43.049229 
	C26.277466,51.900459 21.355429,63.353840 18.855476,76.945107 
	C18.130354,79.916084 17.221443,82.120422 17.132238,84.357437 
	C17.078983,85.692917 17.995832,87.755592 19.055729,88.250099 
	C20.081594,88.728737 21.905535,87.749512 23.274994,87.166466 
	C24.587866,86.607513 25.767242,85.735008 26.969372,85.358887 
	C26.168987,87.134605 25.270538,88.497101 24.665903,89.979446 
	C23.042912,93.958366 21.545614,97.988571 19.749031,101.999161 
	C19.499660,101.999916 19.000126,102.000458 18.617310,101.999924 
	C16.158527,101.332214 14.082560,100.665024 12.004744,99.529404 
	C12.117382,89.476120 11.805463,80.031822 14.810145,70.520767 
	C18.279646,59.538387 23.123213,49.801041 30.970076,41.346497 
	C34.458992,37.587395 36.952751,32.904659 39.898209,28.641159 
	C39.948177,28.346766 40.107204,28.133814 40.893082,28.080929 
	C44.232674,26.934647 47.074718,25.754038 49.871941,24.475370 
	C55.260460,22.012165 60.623627,19.493504 66.426071,16.998623 
	C68.570099,16.999809 70.285355,17.000210 72.000610,17.000610 
z"/>
<path fill="#EA4F55" opacity="1.000000" stroke="none" 
	d="
M124.518120,99.951660 
	C124.423134,93.574463 124.328148,87.197266 124.394348,80.280380 
	C124.654846,79.378273 124.511749,79.133415 124.126244,79.006104 
	C122.989723,76.257149 121.762733,73.541664 120.731422,70.753784 
	C114.284370,53.325813 96.390175,45.618252 77.982681,49.649021 
	C67.993279,51.836449 59.076679,56.692574 50.295845,62.972099 
	C49.090664,62.684261 48.541283,62.347668 48.142632,61.705017 
	C51.411640,59.319248 54.470020,57.141808 57.663273,55.184391 
	C61.719406,52.698032 65.884918,50.390114 70.426102,48.004471 
	C75.898659,47.335125 80.948380,46.666573 86.398483,45.999458 
	C87.866570,45.999786 88.934258,45.998672 90.376457,45.998596 
	C91.499962,46.000240 92.248970,46.000843 93.244209,46.279037 
	C106.645340,49.218468 117.142159,55.418167 122.635155,68.347061 
	C124.015900,71.596939 125.539909,74.785942 126.998505,78.402344 
	C127.001938,79.866722 127.004967,80.931679 127.005051,82.464844 
	C126.990356,88.634331 126.978600,94.335632 126.660690,100.031067 
	C125.742401,100.000694 125.130257,99.976181 124.518120,99.951660 
z"/>
<path fill="#E44B52" opacity="1.000000" stroke="none" 
	d="
M47.001667,155.991486 
	C58.281021,164.767838 70.492943,163.171600 79.558784,151.758362 
	C88.947411,139.938766 95.291626,126.563164 98.329811,111.886879 
	C99.671326,105.406555 98.914658,98.494942 99.148476,91.780449 
	C99.222473,89.655724 99.419395,87.535278 99.879349,85.143005 
	C100.852318,88.240227 102.179344,91.632996 102.052086,94.970306 
	C101.118622,119.449486 95.037354,141.984848 75.770462,158.887238 
	C68.195747,165.532349 58.919975,166.502716 51.411625,162.152679 
	C49.875957,161.262970 48.588360,159.945084 47.078041,158.145309 
	C46.980335,156.974533 46.991001,156.483002 47.001667,155.991486 
z"/>
<path fill="#EA4C58" opacity="1.000000" stroke="none" 
	d="
M65.997307,16.997837 
	C60.623627,19.493504 55.260460,22.012165 49.871941,24.475370 
	C47.074718,25.754038 44.232674,26.934647 41.092453,28.030161 
	C48.516216,20.536888 57.904503,15.782193 67.981377,13.141526 
	C94.607124,6.164191 119.391342,10.139669 141.527847,27.835590 
	C139.425125,27.530022 136.727768,27.531652 135.008469,26.235708 
	C124.061340,17.984085 111.553459,14.759487 98.169083,13.971239 
	C96.376968,13.865697 94.606018,13.400720 92.121964,12.755335 
	C88.632957,12.273438 85.716423,11.545156 83.088318,12.124736 
	C77.313927,13.398176 71.685387,15.333007 65.997307,16.997837 
z"/>
<path fill="#E14952" opacity="1.000000" stroke="none" 
	d="
M167.006775,70.997894 
	C166.692566,69.894951 166.378357,68.792000 165.991486,66.974747 
	C162.755554,57.744080 158.990967,49.618134 152.584320,42.894569 
	C151.164459,41.404476 150.881653,38.830902 150.075287,36.756214 
	C153.552643,40.873688 157.722763,44.588139 160.391769,49.175880 
	C174.707687,73.783379 177.389542,99.500557 166.499100,126.173264 
	C165.534225,128.536453 164.014786,130.673203 162.389526,132.702591 
	C162.012299,131.992706 161.998459,131.495377 162.031464,130.624481 
	C162.668716,128.536987 163.254166,126.821304 163.850418,125.109390 
	C166.588318,117.248634 170.403412,109.662888 169.998169,101.000694 
	C170.000656,96.286522 170.003143,91.572357 170.004852,85.995941 
	C169.004974,80.421761 168.005890,75.709831 167.006775,70.997894 
z"/>
<path fill="#E24F58" opacity="1.000000" stroke="none" 
	d="
M46.856873,155.668365 
	C46.991001,156.483002 46.980335,156.974533 46.944633,157.834045 
	C40.632122,151.730530 38.458950,143.512985 38.049622,134.964294 
	C36.903473,111.027122 43.870144,89.672272 59.717987,71.492775 
	C61.870911,69.023094 64.731476,67.170303 67.602226,64.964615 
	C65.607681,67.781723 63.388931,70.767418 60.923111,73.532814 
	C50.585152,85.126724 44.322304,98.729485 42.153881,113.956726 
	C40.954926,122.376083 40.578251,131.082291 41.274487,139.540375 
	C41.717430,144.921402 44.808475,150.084442 46.856873,155.668365 
z"/>
<path fill="#E24E57" opacity="1.000000" stroke="none" 
	d="
M39.581871,28.777790 
	C36.952751,32.904659 34.458992,37.587395 30.970076,41.346497 
	C23.123213,49.801041 18.279646,59.538387 14.810145,70.520767 
	C11.805463,80.031822 12.117382,89.476120 12.002167,99.964317 
	C12.442086,103.982018 10.534255,107.928757 14.599214,109.538727 
	C16.303593,108.549660 17.648273,107.769325 18.997631,107.347961 
	C19.019384,108.185356 19.036463,108.663780 19.053541,109.142212 
	C18.450785,111.201294 17.848030,113.260384 16.741772,115.659325 
	C14.835441,115.663918 13.432611,115.328651 12.029779,114.993385 
	C11.272375,109.942688 10.188568,104.916222 9.811627,99.837288 
	C7.691904,71.275978 17.955183,47.782993 39.581871,28.777790 
z"/>
<path fill="#F34D54" opacity="1.000000" stroke="none" 
	d="
M126.966843,100.036926 
	C126.978600,94.335632 126.990356,88.634331 127.399193,82.557404 
	C129.631439,92.460060 131.494476,102.791061 128.066910,113.054092 
	C125.265205,121.443130 122.038757,129.690308 118.874855,138.295120 
	C118.499702,139.393448 118.250305,140.197021 117.663033,141.050903 
	C113.209122,144.731293 109.093102,148.361374 105.020126,151.619247 
	C105.377724,149.785095 105.692276,148.323151 106.006821,146.861221 
	C106.030022,146.593140 106.128197,146.356094 106.841278,146.033417 
	C110.681831,141.316376 114.665367,137.053299 117.139297,132.044586 
	C122.114433,121.971970 126.247696,111.487160 126.966843,100.036926 
z"/>
<path fill="#F74E55" opacity="1.000000" stroke="none" 
	d="
M150.062744,36.570244 
	C150.881653,38.830902 151.164459,41.404476 152.584320,42.894569 
	C158.990967,49.618134 162.755554,57.744080 165.955444,66.629745 
	C165.219025,66.459915 164.252167,66.070358 163.702866,65.358559 
	C158.067810,58.056587 152.332214,50.820770 147.028030,43.282665 
	C145.635834,41.304142 145.639526,38.343407 145.250916,35.507889 
	C146.004242,34.799850 146.508835,34.417656 147.225586,34.029160 
	C147.437759,34.022850 147.862198,34.031193 147.862198,34.031193 
	C147.862198,34.031193 148.042145,34.360077 148.155731,34.834351 
	C148.804962,35.557266 149.340622,35.805908 149.876282,36.054550 
	C149.876282,36.054550 150.050217,36.384270 150.062744,36.570244 
z"/>
<path fill="#E25057" opacity="1.000000" stroke="none" 
	d="
M47.991905,62.011074 
	C48.541283,62.347668 49.090664,62.684261 49.974716,63.065712 
	C37.519100,74.291756 27.222672,87.257492 21.189087,103.698105 
	C20.937431,103.942520 20.881466,103.890732 20.896671,103.611992 
	C20.613033,102.899887 20.314192,102.466522 20.008694,102.018700 
	C20.002035,102.004242 19.998402,101.998405 19.998402,101.998405 
	C21.545614,97.988571 23.042912,93.958366 24.665903,89.979446 
	C25.270538,88.497101 26.168987,87.134605 27.076527,85.101410 
	C27.481794,83.994568 27.743992,83.503784 28.308937,82.862610 
	C35.071758,75.811836 41.531834,68.911453 47.991905,62.011074 
z"/>
<path fill="#E35B61" opacity="1.000000" stroke="none" 
	d="
M126.660690,100.031067 
	C126.247696,111.487160 122.114433,121.971970 117.139297,132.044586 
	C114.665367,137.053299 110.681831,141.316376 107.001678,145.922531 
	C114.363014,134.476700 120.118645,122.133881 123.181511,108.616951 
	C123.760567,106.061485 123.909668,103.408592 124.387634,100.376160 
	C125.130257,99.976181 125.742401,100.000694 126.660690,100.031067 
z"/>
<path fill="#F04B50" opacity="1.000000" stroke="none" 
	d="
M98.006462,177.865875 
	C93.979782,177.904739 89.953110,177.943604 85.469086,177.533936 
	C85.005280,176.390381 84.998825,175.695312 85.393181,175.000397 
	C86.861946,174.999344 87.929909,174.998138 89.441330,174.997650 
	C98.924828,173.333252 107.964859,171.668152 116.942802,170.358902 
	C113.920288,172.460968 110.959854,174.207169 107.999420,175.953384 
	C107.591728,176.045135 107.184044,176.136871 106.242218,175.951035 
	C103.140869,176.404251 100.573662,177.135071 98.006462,177.865875 
z"/>
<path fill="#E54D51" opacity="1.000000" stroke="none" 
	d="
M108.396240,175.994949 
	C110.959854,174.207169 113.920288,172.460968 117.190865,170.357956 
	C117.501007,170.001160 117.997253,169.999390 118.383957,170.000061 
	C120.515656,169.001678 122.260643,168.002609 124.371613,166.963409 
	C128.157501,165.284058 131.577408,163.644836 135.010284,162.387604 
	C135.098480,163.274231 135.173737,163.778839 135.248993,164.283463 
	C135.248993,164.283463 135.153198,164.213928 134.926315,164.246063 
	C134.483078,164.574677 134.266724,164.871140 134.050354,165.167633 
	C125.631271,168.790588 117.212166,172.413559 108.396240,175.994949 
z"/>
<path fill="#EB4E56" opacity="1.000000" stroke="none" 
	d="
M18.992956,106.988998 
	C17.648273,107.769325 16.303593,108.549660 14.599214,109.538727 
	C10.534255,107.928757 12.442086,103.982018 12.004015,100.432755 
	C14.082560,100.665024 16.158527,101.332214 18.617664,102.247772 
	C19.000832,102.496155 19.019035,102.991745 19.119963,103.214279 
	C19.415873,103.712349 19.672529,103.906281 20.027981,104.408142 
	C20.096514,105.056648 20.127934,105.315620 20.159355,105.574593 
	C20.159355,105.574593 20.257944,105.790176 19.941196,105.986519 
	C19.413950,106.451569 19.203453,106.720284 18.992956,106.988998 
z"/>
<path fill="#F34D54" opacity="1.000000" stroke="none" 
	d="
M86.034378,166.074814 
	C86.431107,165.728378 86.827827,165.381943 87.757622,164.912201 
	C88.519600,164.508011 88.748505,164.227127 88.977402,163.946259 
	C88.977394,163.946243 88.994659,164.002197 89.199196,163.916107 
	C89.698402,163.669861 89.907303,163.433807 90.030434,163.121841 
	C90.030434,163.121841 90.037376,163.032501 90.431183,163.026291 
	C91.518494,162.303375 92.211998,161.586670 92.905502,160.869980 
	C92.905510,160.869980 92.970596,160.941895 93.172806,160.854126 
	C93.571297,160.484207 93.767586,160.202057 93.963882,159.919922 
	C93.963882,159.919922 93.986885,159.996231 94.312851,159.987259 
	C96.090027,159.312317 97.541237,158.646332 98.990288,158.354721 
	C98.226791,159.872482 97.600685,161.141479 96.678047,162.135101 
	C94.185837,164.819153 91.567429,167.386032 88.653435,169.967499 
	C87.202286,169.626816 86.096786,169.317993 85.112015,168.718384 
	C85.499954,167.643326 85.767166,166.859070 86.034378,166.074814 
z"/>
<path fill="#E14952" opacity="1.000000" stroke="none" 
	d="
M154.191956,147.177338 
	C149.681885,151.720581 145.171829,156.263840 140.315918,160.888275 
	C139.970062,160.969452 139.912643,160.907379 139.967346,160.599823 
	C140.341415,159.523438 140.660782,158.754623 141.130463,157.687515 
	C145.496017,153.901642 149.711243,150.414062 153.992645,146.989410 
	C154.058807,147.052338 154.191956,147.177338 154.191956,147.177338 
z"/>
<path fill="#D96065" opacity="1.000000" stroke="none" 
	d="
M79.935242,177.256409 
	C77.060204,176.670609 74.185165,176.084808 71.310127,175.499008 
	C71.313080,175.025085 71.316032,174.551163 71.318985,174.077240 
	C73.979599,172.781235 76.640213,171.485229 79.646210,170.500793 
	C79.972801,172.960373 79.954025,175.108383 79.935242,177.256409 
z"/>
<path fill="#E55560" opacity="1.000000" stroke="none" 
	d="
M80.258171,177.427307 
	C79.954025,175.108383 79.972801,172.960373 80.001938,170.443787 
	C81.808670,168.804825 83.605049,167.534424 85.717896,166.169418 
	C85.767166,166.859070 85.499954,167.643326 84.956558,169.021179 
	C82.689453,171.531311 79.574463,173.512955 84.992371,175.000259 
	C84.998825,175.695312 85.005280,176.390381 85.017776,177.432892 
	C83.542915,177.719650 82.062004,177.658920 80.258171,177.427307 
z"/>
<path fill="#DD4B57" opacity="1.000000" stroke="none" 
	d="
M98.021179,78.990479 
	C94.713470,74.515602 91.405769,70.040726 88.093796,65.207108 
	C94.682686,66.908005 97.394516,72.150581 98.774628,78.618752 
	C98.476837,78.996468 98.021179,78.990479 98.021179,78.990479 
z"/>
<path fill="#E55560" opacity="1.000000" stroke="none" 
	d="
M98.992447,157.980362 
	C97.541237,158.646332 96.090027,159.312317 94.282410,159.961548 
	C97.753021,155.694839 101.580032,151.444885 105.706940,147.028076 
	C105.692276,148.323151 105.377724,149.785095 104.804604,151.727478 
	C104.275917,152.404724 104.089966,152.662308 103.708878,153.114868 
	C102.613770,154.162231 101.797951,155.075363 100.717896,156.109558 
	C99.966576,156.813873 99.479515,157.397110 98.992447,157.980362 
z"/>
<path fill="#D4565E" opacity="1.000000" stroke="none" 
	d="
M12.010079,115.374969 
	C13.432611,115.328651 14.835441,115.663918 16.607960,115.993675 
	C16.630775,118.598923 16.283905,121.209679 15.937033,123.820442 
	C15.626968,123.915619 15.316904,124.010796 15.006840,124.105972 
	C14.001352,121.322830 12.995866,118.539688 12.010079,115.374969 
z"/>
<path fill="#E54D51" opacity="1.000000" stroke="none" 
	d="
M98.396286,177.928711 
	C100.573662,177.135071 103.140869,176.404251 105.929123,175.990326 
	C103.695488,176.868652 101.240799,177.430084 98.396286,177.928711 
z"/>
<path fill="#E24F58" opacity="1.000000" stroke="none" 
	d="
M75.612541,62.051781 
	C73.568565,63.046764 71.133965,64.012367 68.302582,64.956345 
	C70.344505,63.963955 72.783211,62.993176 75.612541,62.051781 
z"/>
<path fill="#E54D51" opacity="1.000000" stroke="none" 
	d="
M159.118073,138.325378 
	C159.090256,138.710587 159.062439,139.095779 158.741638,139.892700 
	C158.222031,140.553085 158.113312,140.845596 158.122498,141.181946 
	C158.122498,141.181946 158.096329,141.073853 157.842194,141.162766 
	C156.724762,141.829788 155.861465,142.407883 155.001709,142.624771 
	C156.332733,140.174301 157.660202,138.085052 158.998932,136.384552 
	C159.046143,137.290649 159.082108,137.808014 159.118073,138.325378 
z"/>
<path fill="#DD4B57" opacity="1.000000" stroke="none" 
	d="
M87.978699,64.592369 
	C86.259537,64.171341 84.383881,63.437000 82.278259,62.463757 
	C83.972931,62.909588 85.897560,63.594322 87.978699,64.592369 
z"/>
<path fill="#E14952" opacity="1.000000" stroke="none" 
	d="
M135.564728,164.201935 
	C135.173737,163.778839 135.098480,163.274231 135.225967,162.185333 
	C135.811111,161.604126 136.193497,161.607178 136.559387,161.592224 
	C136.542877,161.574203 136.443100,161.634003 136.582184,161.471466 
	C136.721268,161.308914 137.003998,160.987762 137.368164,160.991211 
	C138.459091,160.965561 139.185867,160.936462 139.912643,160.907379 
	C139.912643,160.907379 139.970062,160.969452 139.998367,161.000854 
	C138.644608,162.061646 137.262543,163.091019 135.564728,164.201935 
z"/>
<path fill="#E14952" opacity="1.000000" stroke="none" 
	d="
M154.998169,142.985992 
	C155.861465,142.407883 156.724762,141.829788 157.895554,141.178391 
	C157.048050,143.004013 155.893051,144.902908 154.465012,146.989578 
	C154.191956,147.177338 154.058807,147.052338 154.006119,146.764160 
	C153.953430,146.475983 153.964172,146.024002 154.097565,145.728073 
	C154.482666,144.621140 154.734406,143.810135 154.991669,142.999176 
	C154.997192,142.999222 154.998169,142.985992 154.998169,142.985992 
z"/>
<path fill="#E14952" opacity="1.000000" stroke="none" 
	d="
M159.429062,138.177948 
	C159.082108,137.808014 159.046143,137.290649 159.023468,136.086807 
	C159.357315,134.931213 159.677856,134.462082 160.323456,133.995514 
	C161.081680,133.998657 161.514877,133.999237 161.948074,133.999832 
	C161.212067,135.343399 160.476059,136.686951 159.429062,138.177948 
z"/>
<path fill="#E44B52" opacity="1.000000" stroke="none" 
	d="
M98.014206,79.366165 
	C98.021179,78.990479 98.476837,78.996468 98.704674,78.999557 
	C99.392441,80.187798 99.852371,81.372940 100.144760,82.782364 
	C99.320557,81.918373 98.663887,80.830116 98.014206,79.366165 
z"/>
<path fill="#EA4C58" opacity="1.000000" stroke="none" 
	d="
M147.013428,34.035465 
	C146.508835,34.417656 146.004242,34.799850 145.252563,35.091145 
	C145.001404,34.255508 144.997330,33.510765 145.216751,32.387646 
	C145.440262,32.009266 145.883026,32.008766 145.883026,32.008766 
	C146.098618,32.293179 146.314209,32.577591 146.764771,33.224827 
	C146.999741,33.587646 147.013428,34.035465 147.013428,34.035465 
z"/>
<path fill="#E54D51" opacity="1.000000" stroke="none" 
	d="
M162.014923,133.814575 
	C161.514877,133.999237 161.081680,133.998657 160.349228,133.675659 
	C160.694855,132.568176 161.339737,131.783112 161.984619,130.998032 
	C161.998459,131.495377 162.012299,131.992706 162.062195,132.862900 
	C162.098267,133.235748 162.081787,133.629318 162.014923,133.814575 
z"/>
<path fill="#E55560" opacity="1.000000" stroke="none" 
	d="
M92.612541,160.950653 
	C92.211998,161.586670 91.518494,162.303375 90.474457,163.037918 
	C90.855804,162.380951 91.587692,161.706146 92.612541,160.950653 
z"/>
<path fill="#E25057" opacity="1.000000" stroke="none" 
	d="
M18.997631,107.347961 
	C19.203453,106.720284 19.413950,106.451569 19.860666,106.073486 
	C19.897614,106.849075 19.698345,107.734039 19.276308,108.880600 
	C19.036463,108.663780 19.019384,108.185356 18.997631,107.347961 
z"/>
<path fill="#E14952" opacity="1.000000" stroke="none" 
	d="
M149.836090,35.738750 
	C149.340622,35.805908 148.804962,35.557266 148.162323,35.021683 
	C148.635513,34.964146 149.215714,35.193546 149.836090,35.738750 
z"/>
<path fill="#E35B61" opacity="1.000000" stroke="none" 
	d="
M124.121735,79.256256 
	C124.511749,79.133415 124.654846,79.378273 124.434540,79.853683 
	C124.248093,79.813240 124.182663,79.659821 124.121735,79.256256 
z"/>
<path fill="#E55560" opacity="1.000000" stroke="none" 
	d="
M93.702744,159.988373 
	C93.767586,160.202057 93.571297,160.484207 93.124451,160.850342 
	C93.063133,160.641861 93.252373,160.349350 93.702744,159.988373 
z"/>
<path fill="#E14952" opacity="1.000000" stroke="none" 
	d="
M134.327469,165.102966 
	C134.266724,164.871140 134.483078,164.574677 134.978073,164.217377 
	C135.039337,164.450470 134.821960,164.744400 134.327469,165.102966 
z"/>
<path fill="#E55560" opacity="1.000000" stroke="none" 
	d="
M88.709015,164.014313 
	C88.748505,164.227127 88.519600,164.508011 88.020264,164.856659 
	C87.980095,164.643753 88.210365,164.363068 88.709015,164.014313 
z"/>
<path fill="#E55560" opacity="1.000000" stroke="none" 
	d="
M89.791298,163.177216 
	C89.907303,163.433807 89.698402,163.669861 89.173889,163.901352 
	C89.034401,163.633667 89.237106,163.386963 89.791298,163.177216 
z"/>
<path fill="#E14952" opacity="1.000000" stroke="none" 
	d="
M147.225586,34.029160 
	C147.013428,34.035465 146.999741,33.587646 146.996460,33.363827 
	C147.286087,33.263718 147.579010,33.387428 147.867065,33.771164 
	C147.862198,34.031193 147.437759,34.022850 147.225586,34.029160 
z"/>
<path fill="#E14952" opacity="1.000000" stroke="none" 
	d="
M145.884155,31.740973 
	C145.883026,32.008766 145.440262,32.009266 145.218903,32.015289 
	C144.997528,32.021309 144.979492,31.575136 144.970718,31.352154 
	C145.269714,31.243839 145.577499,31.358509 145.884155,31.740973 
z"/>
<path fill="#E14952" opacity="1.000000" stroke="none" 
	d="
M144.105774,30.688404 
	C143.908508,30.738432 143.582245,30.529432 143.152679,30.040928 
	C143.358521,29.984074 143.667633,30.206724 144.105774,30.688404 
z"/>
<path fill="#E14952" opacity="1.000000" stroke="none" 
	d="
M158.357132,141.078049 
	C158.113312,140.845596 158.222031,140.553085 158.642365,140.165726 
	C158.754639,140.342743 158.673203,140.658447 158.357132,141.078049 
z"/>
<path fill="#E25057" opacity="1.000000" stroke="none" 
	d="
M20.406635,105.379623 
	C20.127934,105.315620 20.096514,105.056648 20.251850,104.384285 
	C20.438604,103.970886 20.881466,103.890732 20.881466,103.890732 
	C20.881466,103.890732 20.937431,103.942520 20.965248,103.968605 
	C20.880014,104.391342 20.766964,104.787994 20.406635,105.379623 
z"/>
<path fill="#FC4E56" opacity="1.000000" stroke="none" 
	d="
M124.000305,54.999847 
	C123.357384,49.890694 119.490753,47.379395 115.522438,45.448273 
	C111.415474,43.449688 106.957474,42.106537 102.561447,40.780178 
	C89.082893,36.713459 75.859077,36.681213 63.044338,43.430599 
	C58.493519,45.827469 53.761784,47.896530 49.040348,49.948952 
	C45.045906,51.685345 42.772430,49.886330 43.013519,45.399288 
	C43.410019,38.019753 47.791374,33.772720 54.141727,30.904522 
	C60.434940,28.062128 66.828674,25.354006 72.816704,21.950733 
	C78.085922,18.955994 83.471001,18.608334 89.171883,19.220362 
	C89.981682,19.307299 90.927277,19.815073 91.567253,19.547478 
	C102.791328,14.854317 111.331306,21.592218 120.382690,26.194950 
	C122.880707,27.465221 125.585335,28.398205 127.912392,29.918713 
	C131.033905,31.958328 134.106598,34.184635 136.779068,36.766712 
	C139.248032,39.152138 140.845810,42.459908 143.375305,44.758347 
	C153.326752,53.800789 159.294327,64.914963 162.103043,77.993431 
	C162.843719,81.442398 164.659393,84.723885 166.342453,87.890388 
	C168.270081,91.517021 167.969437,97.685440 164.968079,101.436646 
	C161.628571,105.610481 159.686218,110.068764 159.857452,115.587128 
	C159.922073,117.670242 158.676651,119.978424 157.527069,121.881104 
	C153.693390,128.226135 149.636337,134.436340 145.654816,140.691803 
	C145.036942,141.662582 144.542145,142.811829 143.691055,143.517426 
	C138.995590,147.410202 134.447250,151.557297 129.368393,154.884323 
	C125.843971,157.193054 121.525101,158.273819 117.603279,159.998901 
	C116.115593,160.653290 114.745842,161.575745 112.760147,162.687927 
	C110.853302,162.832626 109.508636,162.665421 108.944084,162.595230 
	C111.752838,156.808960 114.376266,151.404480 117.038475,145.634827 
	C117.384842,143.846436 117.692429,142.423218 118.368149,140.995880 
	C123.674118,139.909851 125.366768,135.833511 126.881798,131.811752 
	C130.028107,123.459618 133.244232,115.112610 135.833069,106.581841 
	C136.894684,103.083626 136.834839,99.080742 136.532379,95.368767 
	C135.985199,88.653358 134.434433,82.004974 134.113129,75.289825 
	C133.752777,67.758545 129.484131,62.102085 126.181351,55.939365 
	C125.888748,55.393383 124.747437,55.302242 124.000305,54.999847 
z"/>
<path fill="#F74E55" opacity="1.000000" stroke="none" 
	d="
M117.662582,141.050598 
	C117.692429,142.423218 117.384842,143.846436 116.687744,145.671478 
	C111.539925,151.546448 106.740677,156.985123 102.069542,162.531677 
	C101.405128,163.320618 101.084656,164.644379 101.126701,165.699814 
	C101.156403,166.445389 102.223206,167.850586 102.561142,167.774872 
	C106.071747,166.988190 109.528381,165.960663 113.000000,165.000000 
	C117.520691,163.542389 122.855286,163.140427 126.395401,160.411011 
	C134.153473,154.429520 141.119919,147.389725 148.172287,140.537811 
	C151.694763,137.115463 154.669052,133.132675 157.939697,129.446350 
	C161.250290,125.714996 163.496124,121.562798 162.980759,116.406837 
	C162.353912,110.135735 164.404587,105.043121 169.657959,101.050598 
	C170.403412,109.662888 166.588318,117.248634 163.850418,125.109390 
	C163.254166,126.821304 162.668716,128.536987 162.031464,130.624481 
	C161.339737,131.783112 160.694855,132.568176 160.024200,133.673111 
	C159.677856,134.462082 159.357315,134.931213 159.012238,135.698074 
	C157.660202,138.085052 156.332733,140.174301 155.001709,142.624771 
	C154.998169,142.985992 154.997192,142.999222 154.668823,143.043869 
	C154.215042,144.067017 154.089600,145.045502 153.964172,146.024002 
	C153.964172,146.024002 153.953430,146.475983 153.939941,146.701233 
	C149.711243,150.414062 145.496017,153.901642 140.768967,157.695526 
	C139.172760,158.997147 138.088379,159.992447 137.003998,160.987762 
	C137.003998,160.987762 136.721268,161.308914 136.611465,161.444489 
	C136.501663,161.580048 136.575897,161.610245 136.575897,161.610229 
	C136.193497,161.607178 135.811111,161.604126 135.213013,161.803329 
	C131.577408,163.644836 128.157501,165.284058 123.999046,167.003052 
	C121.506088,168.054993 119.751671,169.027191 117.997253,169.999390 
	C117.997253,169.999390 117.501007,170.001160 117.252945,170.002106 
	C107.964859,171.668152 98.924828,173.333252 89.441849,174.581314 
	C88.998947,172.775986 88.999016,171.387680 88.999084,169.999390 
	C91.567429,167.386032 94.185837,164.819153 96.678047,162.135101 
	C97.600685,161.141479 98.226791,159.872482 98.990288,158.354721 
	C99.479515,157.397110 99.966576,156.813873 101.092087,156.106308 
	C102.483078,154.981552 103.235634,153.981094 103.988174,152.980637 
	C104.089966,152.662308 104.275917,152.404724 104.761551,152.099701 
	C109.093102,148.361374 113.209122,144.731293 117.662582,141.050598 
z"/>
<path fill="#F74E55" opacity="1.000000" stroke="none" 
	d="
M119.000610,138.000381 
	C122.038757,129.690308 125.265205,121.443130 128.066910,113.054092 
	C131.494476,102.791061 129.631439,92.460060 127.402130,82.089203 
	C127.004967,80.931679 127.001938,79.866722 126.998131,77.984924 
	C126.994408,69.309875 122.710075,63.234074 118.650352,57.055103 
	C112.967712,48.406010 103.340805,47.673512 94.639656,45.111832 
	C94.216415,44.987232 93.550751,45.686066 92.997971,46.001450 
	C92.248970,46.000843 91.499962,46.000240 90.314682,45.652462 
	C88.190430,43.326168 86.839890,43.237228 85.998100,45.998016 
	C80.948380,46.666573 75.898659,47.335125 70.213287,47.752598 
	C63.035126,50.176548 56.044819,52.119438 50.092762,55.759853 
	C45.388470,58.637108 41.989338,63.629986 37.950115,67.622147 
	C36.385849,69.168182 34.655170,70.545845 33.000305,72.000221 
	C33.843079,69.332458 34.520084,66.597717 35.564972,64.011612 
	C37.433815,59.386200 40.180412,56.005398 45.632126,54.736938 
	C50.387508,53.630489 54.750023,50.916653 59.375206,49.145679 
	C63.619743,47.520458 67.899269,45.832199 72.313599,44.840244 
	C79.313210,43.267345 86.430191,42.203747 93.517097,41.044449 
	C94.783340,40.837318 96.561562,40.704601 97.396393,41.393852 
	C104.779358,47.489395 115.974625,46.834465 121.975647,55.318420 
	C122.219154,55.662670 122.852852,55.730919 123.795563,56.292854 
	C126.179222,61.744549 128.482269,66.723625 129.851456,71.947479 
	C131.266663,77.346840 132.084732,82.955742 132.591965,88.525078 
	C133.094574,94.043777 133.890961,99.842789 132.759598,105.134232 
	C130.867752,113.982605 127.799454,122.618393 124.672600,131.140503 
	C123.708824,133.767212 120.941902,135.732330 119.000610,138.000381 
z"/>
<path fill="#F94E56" opacity="1.000000" stroke="none" 
	d="
M118.874847,138.295120 
	C120.941902,135.732330 123.708824,133.767212 124.672600,131.140503 
	C127.799454,122.618393 130.867752,113.982605 132.759598,105.134232 
	C133.890961,99.842789 133.094574,94.043777 132.591965,88.525078 
	C132.084732,82.955742 131.266663,77.346840 129.851456,71.947479 
	C128.482269,66.723625 126.179222,61.744549 124.143127,56.329056 
	C123.999924,55.833435 123.999962,55.666718 124.000153,55.249924 
	C124.747437,55.302242 125.888748,55.393383 126.181351,55.939365 
	C129.484131,62.102085 133.752777,67.758545 134.113129,75.289825 
	C134.434433,82.004974 135.985199,88.653358 136.532379,95.368767 
	C136.834839,99.080742 136.894684,103.083626 135.833069,106.581841 
	C133.244232,115.112610 130.028107,123.459618 126.881798,131.811752 
	C125.366768,135.833511 123.674118,139.909851 118.368599,140.996185 
	C118.250305,140.197021 118.499702,139.393448 118.874847,138.295120 
z"/>
<path fill="#F44E55" opacity="1.000000" stroke="none" 
	d="
M33.000195,72.250168 
	C34.655170,70.545845 36.385849,69.168182 37.950115,67.622147 
	C41.989338,63.629986 45.388470,58.637108 50.092762,55.759853 
	C56.044819,52.119438 63.035126,50.176548 69.790451,47.753387 
	C65.884918,50.390114 61.719406,52.698032 57.663273,55.184391 
	C54.470020,57.141808 51.411640,59.319248 48.142632,61.705017 
	C41.531834,68.911453 35.071758,75.811836 28.311413,82.490158 
	C29.674044,79.178741 31.336948,76.089371 32.999847,73.000000 
	C32.999847,73.000000 33.000084,72.500107 33.000195,72.250168 
z"/>
<path fill="#F94E56" opacity="1.000000" stroke="none" 
	d="
M113.000000,164.666672 
	C109.528381,165.960663 106.071747,166.988190 102.561142,167.774872 
	C102.223206,167.850586 101.156403,166.445389 101.126701,165.699814 
	C101.084656,164.644379 101.405128,163.320618 102.069542,162.531677 
	C106.740677,156.985123 111.539925,151.546448 116.648956,146.036652 
	C114.376266,151.404480 111.752838,156.808960 108.944084,162.595230 
	C109.508636,162.665421 110.853302,162.832626 112.598984,162.999908 
	C113.000000,163.444443 113.000000,163.888901 113.000000,164.666672 
z"/>
<path fill="#F74E55" opacity="1.000000" stroke="none" 
	d="
M32.653313,73.035027 
	C31.336948,76.089371 29.674044,79.178741 28.008667,82.640556 
	C27.743992,83.503784 27.481794,83.994568 27.112442,84.742828 
	C25.767242,85.735008 24.587866,86.607513 23.274994,87.166466 
	C21.905535,87.749512 20.081594,88.728737 19.055729,88.250099 
	C17.995832,87.755592 17.078983,85.692917 17.132238,84.357437 
	C17.221443,82.120422 18.130354,79.916084 18.847338,77.348892 
	C20.029692,78.440353 21.059008,79.880920 22.720913,82.206833 
	C25.757164,79.312820 29.031971,76.191437 32.653313,73.035027 
z"/>
<path fill="#F34D56" opacity="1.000000" stroke="none" 
	d="
M66.426071,16.998623 
	C71.685387,15.333007 77.313927,13.398176 83.088318,12.124736 
	C85.716423,11.545156 88.632957,12.273438 91.709686,12.702326 
	C85.609558,14.324797 79.218414,15.653421 72.413940,16.991329 
	C70.285355,17.000210 68.570099,16.999809 66.426071,16.998623 
z"/>
<path fill="#F74E55" opacity="1.000000" stroke="none" 
	d="
M166.617889,71.084320 
	C168.005890,75.709831 169.004974,80.421761 170.002655,85.566589 
	C165.331238,83.847916 163.516418,76.713852 166.617889,71.084320 
z"/>
<path fill="#FB4E56" opacity="1.000000" stroke="none" 
	d="
M48.623333,146.991516 
	C47.617924,141.487732 45.860546,136.209976 46.286613,131.114822 
	C47.178066,120.454391 47.903271,109.465805 51.146194,99.401222 
	C54.660686,88.493820 62.386215,79.499023 71.569817,72.349403 
	C76.778931,68.294006 82.661446,68.224388 87.592369,72.242348 
	C92.746201,76.441933 98.594307,80.761040 96.167778,89.049728 
	C95.984940,89.674301 95.967278,90.379021 96.017860,91.035309 
	C96.631287,98.994507 95.425011,106.578384 93.569740,114.421349 
	C92.388123,119.416512 92.206253,124.938034 89.255440,129.057159 
	C83.711395,136.796249 77.820633,144.463150 71.021080,151.077652 
	C64.063255,157.846100 58.602879,157.008194 51.660114,150.155609 
	C50.711536,149.219345 49.792847,148.252792 48.623333,146.991516 
z"/>
<path fill="#E25057" opacity="1.000000" stroke="none" 
	d="
M19.019035,102.991745 
	C19.019035,102.991745 19.000832,102.496155 19.000479,102.248306 
	C19.000126,102.000458 19.499660,101.999916 19.749031,101.999161 
	C19.998402,101.998405 20.002035,102.004242 19.894243,102.227005 
	C19.588099,102.711769 19.332294,102.892426 19.019035,102.991745 
z"/>
<path fill="#F34D54" opacity="1.000000" stroke="none" 
	d="
M93.244209,46.279037 
	C93.550751,45.686066 94.216415,44.987232 94.639656,45.111832 
	C103.340805,47.673512 112.967712,48.406010 118.650352,57.055103 
	C122.710075,63.234074 126.994408,69.309875 126.997719,77.585503 
	C125.539909,74.785942 124.015900,71.596939 122.635155,68.347061 
	C117.142159,55.418167 106.645340,49.218468 93.244209,46.279037 
z"/>
<path fill="#F34D54" opacity="1.000000" stroke="none" 
	d="
M86.398483,45.999458 
	C86.839890,43.237228 88.190430,43.326168 89.940186,45.651421 
	C88.934258,45.998672 87.866570,45.999786 86.398483,45.999458 
z"/>
<path fill="#E24E57" opacity="1.000000" stroke="none" 
	d="
M19.119963,103.214279 
	C19.332294,102.892426 19.588099,102.711769 19.900902,102.241470 
	C20.314192,102.466522 20.613033,102.899887 20.896671,103.611992 
	C20.881466,103.890732 20.438604,103.970886 20.214733,103.994743 
	C19.672529,103.906281 19.415873,103.712349 19.119963,103.214279 
z"/>
<path fill="#EB5358" opacity="1.000000" stroke="none" 
	d="
M88.653435,169.967499 
	C88.999016,171.387680 88.998947,172.775986 88.998375,174.580612 
	C87.929909,174.998138 86.861946,174.999344 85.393181,175.000397 
	C79.574463,173.512955 82.689453,171.531311 84.835831,169.311981 
	C86.096786,169.317993 87.202286,169.626816 88.653435,169.967499 
z"/>
<path fill="#F04B50" opacity="1.000000" stroke="none" 
	d="
M118.383957,170.000061 
	C119.751671,169.027191 121.506088,168.054993 123.633072,167.043167 
	C122.260643,168.002609 120.515656,169.001678 118.383957,170.000061 
z"/>
<path fill="#E54D51" opacity="1.000000" stroke="none" 
	d="
M137.368164,160.991211 
	C138.088379,159.992447 139.172760,158.997147 140.618652,157.993820 
	C140.660782,158.754623 140.341415,159.523438 139.967346,160.599823 
	C139.185867,160.936462 138.459091,160.965561 137.368164,160.991211 
z"/>
<path fill="#F34D54" opacity="1.000000" stroke="none" 
	d="
M103.708885,153.114868 
	C103.235634,153.981094 102.483078,154.981552 101.356331,155.985245 
	C101.797951,155.075363 102.613770,154.162231 103.708885,153.114868 
z"/>
<path fill="#FEFEFE" opacity="1.000000" stroke="none" 
	d="
M136.559387,161.592224 
	C136.575897,161.610245 136.501663,161.580048 136.472382,161.607025 
	C136.443100,161.634003 136.542877,161.574203 136.559387,161.592224 
z"/>
<path fill="#E54D51" opacity="1.000000" stroke="none" 
	d="
M154.097565,145.728073 
	C154.089600,145.045502 154.215042,144.067017 154.663300,143.043823 
	C154.734406,143.810135 154.482666,144.621140 154.097565,145.728073 
z"/>
</svg>